<?xml version="1.0" encoding="utf-8"?>
<!-- Generator: Adobe Illustrator 27.5.0, SVG Export Plug-In . SVG Version: 6.00 Build 0)  -->
<svg version="1.1" xmlns="http://www.w3.org/2000/svg" xmlns:xlink="http://www.w3.org/1999/xlink" x="0px" y="0px"
	 viewBox="0 0 600 600" style="enable-background:new 0 0 600 600;" xml:space="preserve">
<g id="background">
	<rect style="fill:#FFFFFF;" width="600" height="600"/>
</g>
<g id="objects">
	<g>
		<ellipse style="fill:#DBDBDB;" cx="300" cy="512.273" rx="132.5" ry="18"/>
		<path style="fill:#F9C228;" d="M335.892,92.038l42.741,86.602l95.571,13.887c32.829,4.77,45.938,45.115,22.182,68.271
			l-69.156,67.41l16.325,95.185c5.608,32.697-28.711,57.631-58.074,42.194L300,420.647l-85.481,44.94
			c-29.364,15.437-63.682-9.497-58.074-42.194l16.325-95.185l-69.156-67.41c-23.756-23.156-10.647-63.5,22.182-68.271l95.571-13.887
			l42.741-86.602C278.79,62.29,321.21,62.29,335.892,92.038z"/>
		<path style="fill:#DDA722;" d="M496.39,260.793l-69.16,67.42l16.33,95.18c5.6,32.7-28.72,57.63-58.08,42.19L300,420.643
			l-85.48,44.94c-29.36,15.44-63.68-9.49-58.08-42.19l10.82-63.04c37.47,4.72,207.73,15.26,217.31-180.85l89.63,13.02
			C507.03,197.293,520.14,237.643,496.39,260.793z"/>
		<path style="fill:#FFE36C;" d="M129.596,207.204l83.349-11.907c2.333-0.333,3.264,2.918,1.104,3.861
			c-16.847,7.349-51.406,20.12-103.049,28.274c0,0,0-0.696,0.159-1.866C112.458,216.024,120.062,208.566,129.596,207.204z"/>
	</g>
</g>
</svg>
